<?xml version="1.0" standalone="yes"?>
<svg xmlns="http://www.w3.org/2000/svg" width="280" height="270">
<path style="fill:#3D5866; stroke:none;" d="M0 0L0 270L280 270L280 0L0 0z"/>
<path style="fill:#fcfcfc; stroke:none;" d="M260 102C259.893 90.0782 252.002 77.7365 245.63 67.9853C227.062 39.5688 200.403 19.2641 167 11.8843C156.675 9.60312 146.566 10 136 10C132.879 10 127.221 8.95425 124.603 11.0278C121.649 13.3676 123 20.6845 123 24C123 36.0724 123.088 47.983 123.91 60C124.567 69.5859 124 79.392 124 89C124 92.1215 122.954 97.7786 125.028 100.397C126.891 102.749 131.383 101.999 134 102L159 102L260 102M22 185C26.0573 188.761 27.7316 193.916 30.2894 198.715C33.1439 204.07 36.8853 209.817 40.6335 214.576C57.2404 235.663 81.1348 250.08 107 256.525C115.551 258.655 124.193 260.003 133 260C135.617 259.999 140.109 260.749 141.972 258.397C143.468 256.508 142.995 253.236 143 251L143 235C143 213.298 142 191.641 142 170C125.48 170 109.554 162.167 104.484 145C100.601 131.853 103 115.579 103 102L103 16C91.2705 17.5808 79.8833 23.8945 70 30.0887C35.5095 51.7052 15.0027 89.5646 14.0147 130C13.7157 142.234 15.4152 155.04 17.9583 167C19.2512 173.08 22.0111 178.707 22 185M166 120L167 257C177.823 256.505 188.791 250.026 198.17 244.985C229.394 228.204 252.707 198.669 260.65 164C262.951 153.955 264.001 143.29 264 133C264 129.999 264.826 125.134 262.821 122.603C261.103 120.434 257.42 121.03 255 120.996C249.304 120.917 243.723 120 238 120L166 120z"/>
</svg>
